<svg id="ee899e09-f72a-4917-b462-a9fc93cee70d" data-name="图层 1" xmlns="http://www.w3.org/2000/svg" viewBox="0 0 351.66 430.79"><defs><style>.bc13499b-2d69-4c0a-962a-d8b77acfcb77{fill:#1b6cb4;}.a16bbe85-5742-44b4-8a0e-e5054d84d1a8{fill:#f0921d;}.babd39a1-95a7-4254-a7ec-d369db369030{fill:#070707;}.a9db2cfd-8189-4b85-814c-4b9e3d950200{fill:#1f6eb5;}.b3128eec-2d18-48b1-aca7-af2e8479c0c9{fill:#2170b6;}.ac254dca-c67a-4a1e-9490-e9ebb7c17069{fill:#0d0d0d;}.b3338672-6112-4524-b036-d9e1daae17d7{fill:#0a0a0a;}.fb5b2b23-a64f-4424-bee9-9b5ccd656ffd{fill:#111;}.a3488d39-8095-4e0e-aa4b-63c4708d7f8b{fill:#141414;}.b7c95377-28df-4653-b6c3-330b581f1cbc{fill:#121212;}</style></defs><path class="bc13499b-2d69-4c0a-962a-d8b77acfcb77" d="M1008.17,339C950,323.43,899,335.79,856.42,378.35c-23.79,23.78-36.89,53.31-40.65,86.75-3.59,32,3,61.95,19.15,90.65,2.48-6.31,4.76-12,7-17.77q30.57-78.8,61-157.63c1.24-3.22,2.65-4.55,6.33-4.5,18.71.22,37.42.1,56.13.1h4.74c-.73,1.47-1.24,2.53-1.77,3.57-3.5,6.89-3.9,13.87-.39,20.85,6.61,13.13,13.21,26.27,20,39.29,1.36,2.6,1.28,4.44-.31,6.78-3,4.31-5.62,8.82-8.89,14L950.1,408.61l-34.43,95.33.7.81c15.14-10.74,31.68-18.48,50.19-24.41l-9.52,16h36.64c.47,3.36-.86,5.13-3.39,6.67-30.84,18.75-60.33,39.36-86.45,64.44-10.54,10.11-20.18,21-28.06,34.19,37.51,26,78.17,35.14,122.51,24.33s76.65-37.62,98.24-78c1,7-17.41,40.47-40.24,60.76-18.75,16.66-39.9,29-64,35.85C909.82,667.86,824,625.05,794.68,546.14c-30.09-81.08,6.21-169.46,85.12-205.84,37-17.05,75.44-19.28,114.56-7.73C1005.83,336,1006.81,336.62,1008.17,339Z" transform="translate(-784.16 -325.39)"/><path class="a16bbe85-5742-44b4-8a0e-e5054d84d1a8" d="M1039.7,460.11c-19.41,41.33-38.06,81.77-57.16,122l-1.36-.53c5.48-29.4,11-58.79,16.53-88.57H963.53L1028,387.2l1.25.4c-1.28,6.6-3.85,12.89-5.81,19.31s-4.19,13-6.28,19.58-4.22,13.3-6.34,19.95-4.14,13-6.48,20.33Z" transform="translate(-784.16 -325.39)"/><path class="babd39a1-95a7-4254-a7ec-d369db369030" d="M886.53,709.09c8.59,0,12.8-6.56,17.86-11.87.9-.94,1.93-1.74,2.91-2.6l1.23.41c-.32,3.05-.65,6.09-1,9.82l36.6-9.23.53.8c-2.33,1.6-4.49,3.59-7,4.75-11,5-22.06,9.71-33.1,14.53-2.47,1.07-8.5,9.95-8,12.33.25,1.2,1.35,3,2.23,3.1a5.3,5.3,0,0,0,4.15-1.55c3.27-4,6.18-8.37,9.25-12.58.89-1.23,1.86-2.4,2.78-3.58,4,2.51,3.43,6.07,3.21,9.33a98.63,98.63,0,0,1-1.49,11.1c-.52,2.75.51,4.09,3.13,4.08,2.8,0,5.6-.35,9-.59.75,2,2.51,4.56,2.38,7a8,8,0,0,1-8.74,7.89c-4.16-.14-8.45-2.4-12.38-1.79s-7.19,4.18-11.07,5.43c-2.22.71-6.15.3-7.45-1.21-2.81-3.26-4.1-7.63-1.83-12a53.46,53.46,0,0,1,3-4.66c-5.34-6.79-6.81-10.21-6.88-16.15-5.51,1.53-11,3.06-16.42,4.53-2.34.63-4.75,1.77-6.88-.64-.26-.3-1.25-.2-1.76,0a4.36,4.36,0,0,1-5.9-2.35c-.63-1.4.54-4,1.56-5.71,4-6.57,10.64-7.39,17.48-7.71,3.08-.14,6.17-.35,9.25-.54Z" transform="translate(-784.16 -325.39)"/><path class="a9db2cfd-8189-4b85-814c-4b9e3d950200" d="M1020.15,579.74c2-1.07,3.15-1.6,4.21-2.22,5.39-3.15,7.31-7.17,4.85-12.81-5.12-11.77-10.68-23.34-16.27-34.89-1.21-2.5-1.42-4.39,0-6.88,3.14-5.46,5.92-11.12,9.12-17.23,1,1.81,1.8,3.06,2.49,4.34,8,14.93,16.22,29.76,23.93,44.85,4.56,8.93,11.7,15.39,18.89,21.91,1,.91,2.13,1.68,3.72,2.93Z" transform="translate(-784.16 -325.39)"/><path class="babd39a1-95a7-4254-a7ec-d369db369030" d="M1029.7,696.74c-2.48,1.59-4.49,3-6.65,4.22-3.56,1.94-8.37-.26-9-4.18a3.45,3.45,0,0,1,1-2.91c3.15-2.15,6.45-4.11,10.57-2.58,2.17.81,6.42-1,7-3.38a29.38,29.38,0,0,0,.63-8.12c0-.49-1.85-1.38-2.79-1.31a16.5,16.5,0,0,0-5,1.36c-2.58,1.11-4.14-.23-5.16-2.19-1.18-2.26.15-4.08,2.16-4.8,5.67-2,11.45-3.8,17.21-5.57a52.91,52.91,0,0,1,5.74-1c-5.65,6.11-9.38,12.23-8.91,20.58l8-4.31.84,1.07a25.53,25.53,0,0,1-3.38,3.36c-6.42,4.35-8,9-5.74,16.27.37,1.18,0,2.58,0,4.26,5,1.47,10.35,2.76,15.51,4.7a86.38,86.38,0,0,1,14.74,6.88c5.85,3.58,5.93,9.27.5,13.41a32.29,32.29,0,0,1-8.12,4.46c-3.64,1.37-7.08.4-10-2.22-3.93-3.46-7.93-6.82-11.89-10.25-4.15-3.59-5-3.41-8.88.3a81.67,81.67,0,0,1-9.74,7.86c-3.34,2.3-5.52,1.18-5.89-2.72a29.73,29.73,0,0,1-.08-5.5,54.12,54.12,0,0,1,1-5.43C1020.56,718.24,1029.37,706.45,1029.7,696.74Z" transform="translate(-784.16 -325.39)"/><path class="b3128eec-2d18-48b1-aca7-af2e8479c0c9" d="M1034.22,481.17c3.66-7.72,6.79-14.44,10.06-21.08.29-.58,1.41-.93,2.2-1a354.7,354.7,0,0,1,66.46-4.37c7,.21,13.88.92,20.81,1.45a3.58,3.58,0,0,1,2.06,1C1101.36,461.17,1067.41,467.15,1034.22,481.17Z" transform="translate(-784.16 -325.39)"/><path class="ac254dca-c67a-4a1e-9490-e9ebb7c17069" d="M886.53,709.09l-3.39.3c-1-1.17-2.07-2.34-3.11-3.5-1.89-10.42,5.28-22.43,12.65-21.89v6.88c5-.65,9.27-3.5,9.83-6.5h2.82a7.48,7.48,0,0,0,2.52.13c5.41-1.64,10.74-3.63,16.21-5s10.66.72,13,4.79.55,7.54-4.25,7.48c-3.09,0-6.07-.48-8.27-3.27a5.66,5.66,0,0,0-3.71-1.84C910.45,686,901,689,892.29,694.54a10.8,10.8,0,0,0-5.17,7.78C886.76,704.55,886.71,706.83,886.53,709.09Z" transform="translate(-784.16 -325.39)"/><path class="b3338672-6112-4524-b036-d9e1daae17d7" d="M986.33,731.58c1.75-2,3.55-3.89,5.23-5.92s3-3.91,5.1-6.66c.28,2.29.78,3.73.55,5-2,11.59-3.67,23.33-16.44,29-3.07,1.35-4.43.72-5.92-1.88-4.53-7.92-4.38-16.17-2-24.6,1-3.56,2.19-7.06,3.29-10.59l1.14.11v24.28l1.5.62,6.82-8.69-.06.1.85-.81Z" transform="translate(-784.16 -325.39)"/><path class="ac254dca-c67a-4a1e-9490-e9ebb7c17069" d="M986.65,698.17c-1.95-3.5-.17-5.39,1.59-7.43,3.62-4.21,5.53-9,4.28-14.65-5.93.58-6.83,1.22-8.66,6.6-1.19-1.2-2.59-2-2.88-3.09s.26-3.1,1-3.47c4.7-2.27,9.17-5.52,14.93-4.3,4.21.89,5.27,2.82,4.22,6.95-.76,3-.55,6.21-1.43,9.14a10,10,0,0,1-3.56,5C993.29,694.94,990,696.38,986.65,698.17Z" transform="translate(-784.16 -325.39)"/><path class="b3338672-6112-4524-b036-d9e1daae17d7" d="M905.33,684.38h-2.82l-.72-3.76v-4.46c.33-7,3.76-12.31,9.44-16,1.59-1,5.23-1.49,6.06-.55a11.79,11.79,0,0,1,2.64,7.36c0,4.49-4,7.07-8.62,6.3a5.17,5.17,0,0,0-5.8,4.79C905.4,680.16,905.38,682.27,905.33,684.38Z" transform="translate(-784.16 -325.39)"/><path class="fb5b2b23-a64f-4424-bee9-9b5ccd656ffd" d="M983,703.17c-7.4-4.82-10.16-20.68-6.12-31.41C979,682.61,981,692.89,983,703.17Z" transform="translate(-784.16 -325.39)"/><path class="a3488d39-8095-4e0e-aa4b-63c4708d7f8b" d="M985.59,732.25c-1-1.67-2.63-3.22-3-5-1.36-7-.75-13.84,3.11-20.11.58-1,1-2,1.92-3.68a10.6,10.6,0,0,1,.7,2.9c-.82,8.27-1.71,16.53-2.56,24.8,0,.13.36.3.55.45l0,0-.85.81Z" transform="translate(-784.16 -325.39)"/><path class="b7c95377-28df-4653-b6c3-330b581f1cbc" d="M994.61,704.73l-2.82-.24c.17-.29.22-.53.37-.63,2.23-1.44,4.45-2.91,6.74-4.25.47-.27,1.55-.3,1.79,0a3.28,3.28,0,0,1,.69,2.24,35.21,35.21,0,0,1-1.33,6.11,14.23,14.23,0,0,1-2,3.12,12.69,12.69,0,0,1-2.47-2.5C995,707.59,995,706.3,994.61,704.73Z" transform="translate(-784.16 -325.39)"/><path class="ac254dca-c67a-4a1e-9490-e9ebb7c17069" d="M901.79,676.16v0Z" transform="translate(-784.16 -325.39)"/></svg>